<svg xmlns="http://www.w3.org/2000/svg" width="566" height="160.916" viewBox="0 0 566 160.916">
  <g id="Group_287" data-name="Group 287" transform="translate(-701.471 -2817.031)">
    <g id="Group_186" data-name="Group 186" transform="translate(701.5 2817.031)">
      <g id="Path_174" data-name="Path 174" transform="translate(7.568)" fill="none">
        <path d="M80.458,0h389.89a80.458,80.458,0,1,1,0,160.916H80.458A80.458,80.458,0,0,1,80.458,0Z" stroke="none"/>
        <path d="M 80.45779418945312 5.999969482421875 C 39.40158081054688 5.999969482421875 5.99993896484375 39.40158843994141 5.99993896484375 80.45781707763672 C 5.99993896484375 121.5140533447266 39.40158081054688 154.9156646728516 80.45779418945312 154.9156646728516 L 470.3475036621094 154.9156646728516 C 511.4036560058594 154.9156646728516 544.8052368164062 121.5140533447266 544.8052368164062 80.45781707763672 C 544.8052368164062 39.40158843994141 511.4036560058594 5.999969482421875 470.3475036621094 5.999969482421875 L 80.45779418945312 5.999969482421875 M 80.45779418945312 -3.0517578125e-05 L 470.3475036621094 -3.0517578125e-05 C 514.7830200195312 -3.0517578125e-05 550.8052368164062 36.02220153808594 550.8052368164062 80.45781707763672 C 550.8052368164062 124.8934326171875 514.7830200195312 160.9156646728516 470.3475036621094 160.9156646728516 L 80.45779418945312 160.9156646728516 C 36.022216796875 160.9156646728516 -6.103515625e-05 124.8934326171875 -6.103515625e-05 80.45781707763672 C -6.103515625e-05 36.02220153808594 36.022216796875 -3.0517578125e-05 80.45779418945312 -3.0517578125e-05 Z" stroke="none" fill="#452824"/>
      </g>
      <text id="Franchise_With_Us" data-name="Franchise With Us" transform="translate(-0.029 59.458)" fill="#452824" font-size="40" font-family="Paralucent-Bold, Paralucent" font-weight="700" letter-spacing="0.08em"><tspan x="80
" y="38">Franchise With Us</tspan></text>
    </g>
  </g>
</svg>
