<svg xmlns="http://www.w3.org/2000/svg" width="1922.447" height="355.436" viewBox="0 0 1922.447 355.436">
  <path id="Subtraction_2" data-name="Subtraction 2" d="M-10213.419,296.435h0l-.213-354.844L-8291.185-59l-1.286,350.793c-32.775-5.661-63.658-11.016-93.523-16.194l-1.694-.294c-205.153-35.572-340.686-59.073-464.522-73.481-63.069-7.338-121.936-12.213-185.253-15.344-62.627-3.1-130.818-4.538-214.6-4.538-45.881,0-97.685.436-158.371,1.333-53.545.791-107.612,2.83-160.7,6.06-48.765,2.967-97.847,7.008-145.884,12.01-82.7,8.612-164.278,20.25-242.478,34.591-59.288,10.873-116.044,23.17-168.691,36.551-42.837,10.887-71.784,19.678-85.227,23.949Z" transform="translate(10213.632 59.001)" fill="#fef6f1"/>
</svg>
